<svg width="149" height="136" viewBox="0 0 149 136" fill="none" xmlns="http://www.w3.org/2000/svg">
<path fill-rule="evenodd" clip-rule="evenodd" d="M1.86764 37.2963C9.01473 10.623 36.4316 -5.20614 63.1049 1.94095L111.401 14.8819C138.074 22.029 153.904 49.4458 146.757 76.1191C142.783 90.9497 132.543 102.428 119.648 108.468C119.528 108.564 119.397 108.653 119.257 108.734L73.626 135.079C71.3113 136.416 68.5364 134.286 69.2282 131.705L75.377 108.757L37.223 98.5335C10.5497 91.3864 -5.27945 63.9696 1.86764 37.2963ZM97.0997 42.0546C97.7052 42.4352 98.3761 42.7241 99.1124 42.9214C100.483 43.2887 101.644 43.2723 102.595 42.8721C103.578 42.4531 104.216 41.6962 104.51 40.6012C104.667 40.0156 104.677 39.4179 104.541 38.8084C104.412 38.1733 104.161 37.5874 103.788 37.0508C103.44 36.5209 102.992 36.0597 102.444 35.6673C101.903 35.2494 101.302 34.952 100.642 34.7751C99.2203 34.3941 97.9891 34.419 96.9485 34.8498C95.9333 35.2874 95.2824 36.0409 94.9958 37.1104C94.8253 37.747 94.808 38.3701 94.9439 38.9797C95.0799 39.5893 95.3218 40.159 95.6697 40.6889C96.0497 41.2001 96.5264 41.6553 97.0997 42.0546ZM92.4993 51.3022C91.5875 51.6583 91.0122 52.282 90.7734 53.1733C90.6165 53.7589 90.3993 54.8743 90.1217 56.5194C89.8764 58.1458 89.522 60.1796 89.0583 62.6209C88.62 65.0689 88.0643 67.8539 87.391 70.9759C86.75 74.0793 85.9586 77.3879 85.017 80.902C84.826 81.615 84.8985 82.2076 85.2346 82.6797C85.5893 83.1841 86.1601 83.5418 86.9472 83.7527C88.6736 84.2153 90.0664 84.2473 91.1256 83.8488C92.2102 83.4571 92.923 82.6247 93.2642 81.3515C93.5917 80.1292 93.9279 78.7728 94.2729 77.2822C94.6178 75.7917 94.9638 74.2469 95.3106 72.6477C95.6643 71.023 96.0087 69.3822 96.3438 67.7253C96.7112 66.0497 97.0361 64.431 97.3185 62.8691C97.6332 61.2886 97.9113 59.7938 98.1528 58.3847C98.4197 56.9824 98.649 55.7202 98.8409 54.598C99.1116 52.9784 98.1044 51.8625 95.8194 51.2502C94.55 50.9101 93.4433 50.9274 92.4993 51.3022ZM56.2958 29.3608C52.7414 28.4084 50.5957 29.3073 49.8588 32.0574C49.6132 32.9742 49.3357 34.6192 49.0262 36.9926C48.749 39.3474 48.3735 42.2216 47.8995 45.6153C47.4577 48.9904 46.8848 52.7534 46.1808 56.9042C45.509 61.0364 44.6556 65.3383 43.6207 69.8099C43.3576 70.9949 43.4371 71.9168 43.8592 72.5758C44.3067 73.2415 45.2032 73.7547 46.5488 74.1152C47.209 74.2921 47.7939 74.3942 48.3035 74.4216C48.8064 74.4745 49.2535 74.4305 49.645 74.2898C50.0619 74.1559 50.4484 73.9319 50.8046 73.618C51.1609 73.3041 51.519 72.8815 51.879 72.3502C55.7057 66.4979 59.0103 62.2387 61.7927 59.5727C64.6005 56.9135 66.9819 55.8458 68.9369 56.3696C69.8001 56.6009 70.4736 57.2863 70.9574 58.4258C71.4666 59.572 71.7856 61.0221 71.9143 62.776C72.043 64.5299 71.9731 66.5172 71.7046 68.7378C71.4683 70.9398 71.0295 73.2376 70.3881 75.6312C70.1289 76.5989 70.1917 77.3799 70.5767 77.9743C70.987 78.5755 71.7888 79.036 72.9821 79.3557C73.8453 79.587 74.5893 79.7045 75.2142 79.7082C75.8323 79.7373 76.3541 79.6179 76.7797 79.3498C77.2053 79.0818 77.56 78.6719 77.8439 78.1202C78.1599 77.5499 78.4442 76.7937 78.6967 75.8515C79.6178 72.4138 80.1582 69.229 80.318 66.2969C80.4846 63.3394 80.2974 60.7374 79.7565 58.4909C79.2155 56.2444 78.3267 54.3824 77.09 52.9047C75.8532 51.427 74.2954 50.4365 72.4167 49.9331C70.9949 49.5521 69.5235 49.4581 68.0024 49.6509C66.5135 49.8251 65.0164 50.2837 63.5112 51.0266C62.0128 51.7441 60.5257 52.724 59.05 53.9661C57.5811 55.1828 56.1592 56.6303 54.7842 58.3089C54.4329 58.706 54.143 58.8739 53.9145 58.8127C53.7622 58.7719 53.643 58.6581 53.557 58.4713C53.4964 58.2913 53.5139 58.023 53.6094 57.6665C54.3274 54.1745 54.9285 51.1696 55.4126 48.6519C55.9289 46.1156 56.3507 43.8815 56.6779 41.9495C57.0373 39.9989 57.3328 38.2358 57.5645 36.6604C57.7961 35.0849 58.0058 33.4899 58.1935 31.8753C58.2743 31.2693 58.1305 30.7395 57.7622 30.286C57.3939 29.8325 56.9051 29.5241 56.2958 29.3608Z" fill="#0000FF"/>
</svg>
